<svg width="180" height="180" fill="none" xmlns="http://www.w3.org/2000/svg"><path d="M90 13.433c42.058 0 76.154 34.28 76.154 76.567 0 42.287-34.096 76.567-76.154 76.567-42.059 0-76.154-34.28-76.154-76.567 0-42.287 34.095-76.567 76.153-76.567" fill="#DE5833"/><path d="M90 180c49.706 0 90-40.294 90-90S139.706 0 90 0 0 40.294 0 90s40.294 90 90 90zm0-7.5c-45.564 0-82.5-36.936-82.5-82.5S44.436 7.5 90 7.5s82.5 36.936 82.5 82.5-36.936 82.5-82.5 82.5z" fill="#DE5833"/><path d="M52.516 37.67c-.016-1.405.948-2.193 2.227-2.744-.586.101-1.147.257-1.652.497-1.334.64-2.331 3.068-2.322 4.217 6.477-.694 16.054-.214 23.057 2.002a58.616 58.616 0 011.559-.218c-6.986-3.288-15.29-4.557-22.87-3.753M53.53 29.62c.147-.026.296-.044.444-.068-1.407.172-2.149.666-3.205.837 1.147.1 5.492 2.095 8.222 3.193a4.97 4.97 0 001.01-.49c-1.416-.206-4.934-3.334-6.47-3.472zM60.695 45.672c-.394.146-.77.298-1.094.461-10.73 5.421-15.47 18.083-12.645 33.256 2.578 13.808 13.146 60.983 17.985 83.172 1.413.477 2.843.919 4.29 1.32-4.31-19.978-16.07-72.327-18.815-87.03-2.782-14.956-.075-25.689 10.28-31.18" fill="#D5D7D8"/><path d="M102.31 154.21a5.115 5.115 0 01-.595.323c-.162.619-.409 1.088-.769 1.324-2.149 1.409-8.22 2.119-11.426 1.409-.551-.121-.97-.321-1.296-.596-5.473 3.002-13.344 6.998-14.942 6.098-2.497-1.415-2.86-20.11-2.497-24.698.264-3.464 12.58 2.146 18.57 5.089 1.325-1.222 4.57-2.04 7.442-2.318-4.34-10.433-7.54-22.367-5.578-30.83-2.712-1.867-6.306-6.196-5.558-10.715.577-3.44 9.574-9.946 15.944-10.34 6.385-.397 8.375-.308 13.694-1.566l.865-.205c3.275-11.37-4.578-31.152-13.338-39.809-2.855-2.82-7.246-4.596-12.193-5.534-1.903-2.579-4.972-5.045-9.316-7.329-8.068-4.23-18.038-5.953-27.326-4.396-.145.024-.29.042-.435.068 1.505.135 4.949 3.21 6.335 3.412a4.86 4.86 0 01-.988.481c-1.301.49-3.07.786-4.46 1.346-1.26.507-2.21 1.23-2.195 2.522 7.471-.74 15.658.427 22.545 3.447a61.92 61.92 0 00-1.537.2c-4.883.679-9.372 1.929-12.614 3.619-.153.078-.297.163-.447.244-10.043 5.486-12.668 16.21-9.97 31.154 2.662 14.69 14.144 67.805 18.323 87.766 6.871 1.964 13.296 3.534 20.808 3.534 6.376 0 14.046-1.396 19.977-2.827-2.083-3.968-4.762-8.355-6.414-11.501-.22.259-.394.486-.609.628zm4.202-75.32c-2.722 0-4.942-2.187-4.942-4.891 0-2.692 2.22-4.88 4.942-4.88 2.737 0 4.948 2.188 4.948 4.88a4.818 4.818 0 01-.375 1.872 4.884 4.884 0 01-1.072 1.587 4.961 4.961 0 01-3.501 1.432zm2.977-18.383s-3.117-1.76-5.537-1.73c-4.971.065-6.325 2.234-6.325 2.234s.834-5.172 7.192-4.135c3.447.567 4.67 3.63 4.67 3.63zm-52.416 6.36s-2.239-4.93 3.728-7.345c5.973-2.416 8.882 1.375 8.882 1.375s-4.338-1.938-8.555.68c-4.21 2.615-4.055 5.29-4.055 5.29zM62.29 77.37c0-.747.148-1.487.438-2.177.289-.69.713-1.317 1.248-1.845a5.757 5.757 0 011.868-1.233 5.812 5.812 0 012.204-.43c.756 0 1.504.146 2.202.432a5.758 5.758 0 011.867 1.233 5.678 5.678 0 011.247 1.844c.289.69.438 1.43.437 2.176 0 3.143-2.576 5.684-5.753 5.684a5.81 5.81 0 01-2.204-.43 5.754 5.754 0 01-1.868-1.232 5.675 5.675 0 01-1.249-1.845 5.62 5.62 0 01-.437-2.177z" fill="#fff"/><path d="M73.846 77.24c0-.795-.139-1.58-.409-2.314a6.14 6.14 0 00-1.166-1.962 5.39 5.39 0 00-1.747-1.31 4.877 4.877 0 00-2.06-.46c-.708-.002-1.408.154-2.062.458a5.385 5.385 0 00-1.748 1.31 6.138 6.138 0 00-1.168 1.962c-.27.734-.41 1.52-.41 2.315 0 .794.14 1.581.41 2.315.27.734.667 1.4 1.168 1.962a5.382 5.382 0 001.748 1.31 4.872 4.872 0 002.062.457c2.972 0 5.382-2.701 5.382-6.044zm-2.998-.445a1.326 1.326 0 01-.985-.462 1.672 1.672 0 01-.408-1.109c0-.416.147-.814.41-1.108.261-.294.616-.46.986-.46s.726.166.988.46c.261.294.409.692.409 1.108 0 .206-.037.41-.107.601-.07.19-.173.364-.303.51-.13.146-.284.262-.454.34-.17.08-.352.12-.536.12z" fill="#2D4F8E"/><path d="M70.766 73.88a1.66 1.66 0 00-1.087.395 1.26 1.26 0 00-.448.948c0 .743.692 1.346 1.535 1.344.409 0 .8-.141 1.09-.393.29-.252.452-.594.452-.95 0-.177-.04-.352-.118-.515a1.345 1.345 0 00-.334-.436 1.573 1.573 0 00-.5-.29 1.74 1.74 0 00-.59-.102" fill="#fff"/><path d="M106.151 69.85c-2.541 0-4.613 2.106-4.613 4.696 0 2.603 2.072 4.708 4.613 4.708.607 0 1.207-.122 1.768-.358a4.607 4.607 0 001.499-1.02 4.711 4.711 0 001.001-1.528 4.769 4.769 0 00.35-1.802c0-2.59-2.064-4.695-4.618-4.695zm2.048 4.35c-.651 0-1.189-.54-1.189-1.217 0-.669.538-1.218 1.189-1.218a1.2 1.2 0 011.2 1.218c0 .678-.521 1.217-1.2 1.217z" fill="#2D4F8E"/><path d="M107.685 71.193c-.839 0-1.531.606-1.531 1.344 0 .748.692 1.343 1.531 1.343.203.002.405-.03.593-.097.189-.067.36-.166.504-.29.144-.126.258-.275.335-.439.077-.164.116-.34.114-.517 0-.738-.671-1.344-1.546-1.344z" fill="#fff"/><path d="M69.23 61.26s-2.748-3.749-8.394-1.36c-5.64 2.39-3.524 7.264-3.524 7.264s-.147-2.644 3.833-5.23c3.986-2.59 8.086-.673 8.086-.673z" fill="url(#paint0_linear)"/><path d="M104.385 56.591c-6.596-1.305-7.462 5.2-7.462 5.2s1.405-2.729 6.563-2.81c2.51-.037 5.745 2.175 5.745 2.175s-1.27-3.853-4.846-4.565z" fill="url(#paint1_linear)"/><path d="M100.533 89.142c-6.32.397-15.246 6.968-15.818 10.44-.742 4.564 2.823 8.935 5.513 10.82l.022.017c2.69 1.881 20.599 7.956 29.484 7.787 8.895-.174 23.503-5.651 21.899-10.04-1.597-4.39-16.105 3.874-31.238 2.463-11.207-1.047-13.185-6.095-10.704-9.782 3.122-4.634 8.807.879 18.184-1.942 9.391-2.814 22.525-7.85 27.398-10.592 11.267-6.316-4.715-8.935-8.49-7.183-3.578 1.662-16.033 4.823-21.807 6.224l-.858.207c-5.277 1.27-7.252 1.18-13.585 1.581" fill="#FDD209"/><path d="M87.135 146.097c0-.65.523-1.225 1.352-1.716.023-.394.237-.761.597-1.098-5.902-2.939-18.035-8.541-18.295-5.082-.357 4.581 0 23.252 2.46 24.664 1.575.9 9.329-3.091 14.72-6.089-1.555-1.328-.834-4.551-.834-10.679M102.368 153.661l.078.031c4.831 1.867 14.449 5.381 16.538 4.614 2.816-1.078 2.111-23.614-1.05-24.332-2.532-.562-12.225 6.277-16.038 9.063.674 2.852 1.49 8.502.472 10.624" fill="#65BC46"/><path d="M90.588 155.726c-3.168-.703-2.11-3.878-2.11-11.274 0-.024.008-.047.009-.071-.829.49-1.351 1.066-1.351 1.716 0 6.128-.722 9.351.834 10.678.321.275.733.475 1.276.596 3.158.708 9.14 0 11.257-1.407.354-.236.598-.705.757-1.323-2.479 1.189-7.771 1.746-10.672 1.085" fill="#43A244"/><path d="M89.084 143.283c-.36.336-.574.703-.597 1.098-.002.024-.009.047-.009.071 0 7.397-1.058 10.571 2.11 11.274 2.9.661 8.193.104 10.672-1.085.215-.103.416-.209.585-.322.213-.142.384-.368.523-.658 1.018-2.122.202-7.771-.473-10.624-.148-.627-.289-1.122-.403-1.411-.291-.721-2.533-.907-5.077-.658-2.83.278-6.027 1.094-7.331 2.315" fill="#65BC46"/><defs><linearGradient id="paint0_linear" x1="65.662" y1="67.164" x2="56.923" y2="67.164" gradientUnits="userSpaceOnUse"><stop stop-color="#394A9F"/><stop offset="1" stop-color="#6176B9"/></linearGradient><linearGradient id="paint1_linear" x1="105.662" y1="61.791" x2="96.923" y2="61.791" gradientUnits="userSpaceOnUse"><stop stop-color="#394A9F"/><stop offset="1" stop-color="#6176B9"/></linearGradient></defs></svg>